<svg xmlns="http://www.w3.org/2000/svg" xmlns:xlink="http://www.w3.org/1999/xlink" viewBox="0 0 518.52 289.78"><defs><style>.cls-1{fill:#1d1d1b;}.cls-2,.cls-4{fill:#fff;}.cls-3{fill:url(#Dégradé_sans_nom_134);}.cls-4{font-size:4px;font-family:TwCenMT-Regular, Tw Cen MT;}.cls-5{letter-spacing:0.02em;}.cls-6{letter-spacing:-0.02em;}</style><linearGradient id="Dégradé_sans_nom_134" x1="139.26" y1="150.3" x2="296.3" y2="150.3" gradientUnits="userSpaceOnUse"><stop offset="0" stop-color="#e72988"/><stop offset="0" stop-color="#e62988"/><stop offset="0.03" stop-color="#bd2e8a"/><stop offset="0.06" stop-color="#9b328b"/><stop offset="0.1" stop-color="#80358d"/><stop offset="0.13" stop-color="#6d378d"/><stop offset="0.16" stop-color="#62398e"/><stop offset="0.2" stop-color="#5e398e"/><stop offset="0.34" stop-color="#32b9cc"/><stop offset="0.55" stop-color="#e6e465"/><stop offset="0.94" stop-color="#e3312d"/></linearGradient></defs><g id="Calque_2" data-name="Calque 2"><g id="Calque_1-2" data-name="Calque 1"><rect class="cls-1" width="518.52" height="289.78"/><path class="cls-2" d="M141.84,117.92h11.95l142.51,1.32c0,.81-141.7,1.67-142.51,1.67h-8.38a1.47,1.47,0,0,0-1.47,1.47v6.25a1.47,1.47,0,0,0,1.47,1.47h7.52a1.46,1.46,0,0,1,1.47,1.46v0a1.47,1.47,0,0,1-1.47,1.46h-7.52a1.47,1.47,0,0,0-1.47,1.46v9.58a1.46,1.46,0,0,1-1.46,1.47h-.64a1.46,1.46,0,0,1-1.46-1.47v-24.7A1.46,1.46,0,0,1,141.84,117.92Z"/><path class="cls-2" d="M161.81,121.93h.63a1.37,1.37,0,0,1,1.47,1.25v18.55a1.37,1.37,0,0,0,1.46,1.25h8.88a1.37,1.37,0,0,1,1.47,1.25v.05a1.37,1.37,0,0,1-1.47,1.25H161.81a1.37,1.37,0,0,1-1.47-1.25v-21.1A1.37,1.37,0,0,1,161.81,121.93Z"/><path class="cls-2" d="M180.32,121.93a1.37,1.37,0,0,1,1.46,1.25V136c0,5.31,2.75,7.56,6.44,7.56,4.1,0,6.73-2.32,6.73-7.56V123.18a1.37,1.37,0,0,1,1.46-1.25h.68a1.37,1.37,0,0,1,1.46,1.25v12.56c0,7.28-4.46,10.27-10.45,10.27-5.66,0-9.92-2.78-9.92-10.13v-12.7a1.37,1.37,0,0,1,1.46-1.25Z"/><path class="cls-2" d="M217.59,134.48h-7.81a1.37,1.37,0,0,0-1.47,1.25v6a1.38,1.38,0,0,0,1.47,1.26h9a1.37,1.37,0,0,1,1.46,1.25v.05a1.37,1.37,0,0,1-1.46,1.26H206.21a1.38,1.38,0,0,1-1.47-1.26V123.18a1.37,1.37,0,0,1,1.47-1.25h12a1.37,1.37,0,0,1,1.47,1.25v0a1.38,1.38,0,0,1-1.47,1.26h-8.42a1.37,1.37,0,0,0-1.47,1.25v5a1.37,1.37,0,0,0,1.47,1.25h7.81a1.37,1.37,0,0,1,1.46,1.25v0A1.37,1.37,0,0,1,217.59,134.48Z"/><path class="cls-2" d="M224.92,144.3V123.18a1.37,1.37,0,0,1,1.46-1.25H228a1.54,1.54,0,0,1,1.24.58l8.43,11.37a64.4,64.4,0,0,1,5,7.68l.08,0a89.35,89.35,0,0,1-.41-9.71v-8.63a1.37,1.37,0,0,1,1.46-1.25h.44a1.37,1.37,0,0,1,1.46,1.25V144.3a1.37,1.37,0,0,1-1.46,1.26h-1.33a1.57,1.57,0,0,1-1.25-.59l-8.34-11.4a73.27,73.27,0,0,1-5.17-7.89l-.12,0c.21,3,.29,5.82.29,9.75v8.84a1.38,1.38,0,0,1-1.47,1.26h-.43A1.37,1.37,0,0,1,224.92,144.3Z"/><path class="cls-2" d="M270.88,143.8a1.22,1.22,0,0,1-1,1.49,24.21,24.21,0,0,1-6,.68c-7.79,0-13.66-4.16-13.66-11.8,0-7.3,5.87-12.24,14.44-12.24a20.75,20.75,0,0,1,5.2.58,1.21,1.21,0,0,1,1,1.53l0,.12a1.5,1.5,0,0,1-1.8.81,16.72,16.72,0,0,0-4.22-.52c-6.48,0-10.78,3.49-10.78,9.62,0,5.7,3.89,9.37,10.61,9.37a18.84,18.84,0,0,0,4.4-.51,1.51,1.51,0,0,1,1.84.87Z"/><path class="cls-2" d="M282,144.3v-8.45a1.09,1.09,0,0,0-.19-.6l-7.36-11.47c-.53-.83.17-1.85,1.29-1.85h.68a1.5,1.5,0,0,1,1.31.68l3.49,5.84c1.06,1.78,1.88,3.22,2.74,4.87H284c.77-1.54,1.72-3.09,2.78-4.87l3.57-5.85a1.51,1.51,0,0,1,1.3-.67h.62c1.13,0,1.83,1,1.26,1.88l-7.78,11.39a1.12,1.12,0,0,0-.2.63v8.47a1.37,1.37,0,0,1-1.46,1.26h-.68A1.37,1.37,0,0,1,282,144.3Z"/><text/><text/><rect class="cls-3" x="139.26" y="148.66" width="157.03" height="3.29"/><text class="cls-4" transform="translate(250.71 155.93)">Ma<tspan class="cls-5" x="5.29" y="0">r</tspan><tspan class="cls-6" x="6.7" y="0">k</tspan><tspan x="8.38" y="0">eting &amp; Com</tspan><tspan class="cls-5" x="28.25" y="0">m</tspan><tspan x="31" y="0">unication.</tspan></text></g></g></svg>