<svg xmlns="http://www.w3.org/2000/svg" xmlns:xlink="http://www.w3.org/1999/xlink" viewBox="0 0 157.78 63"><defs><style>.cls-1{fill:#fff;}.cls-2{fill:url(#Dégradé_sans_nom_134);}</style><linearGradient id="Dégradé_sans_nom_134" y1="35.05" x2="157.03" y2="35.05" gradientUnits="userSpaceOnUse"><stop offset="0" stop-color="#e72988"/><stop offset="0" stop-color="#e62988"/><stop offset="0.03" stop-color="#bd2e8a"/><stop offset="0.06" stop-color="#9b328b"/><stop offset="0.1" stop-color="#80358d"/><stop offset="0.13" stop-color="#6d378d"/><stop offset="0.16" stop-color="#62398e"/><stop offset="0.2" stop-color="#5e398e"/><stop offset="0.34" stop-color="#32b9cc"/><stop offset="0.55" stop-color="#e6e465"/><stop offset="0.94" stop-color="#e3312d"/></linearGradient></defs><g id="Calque_2" data-name="Calque 2"><g id="Calque_1-2" data-name="Calque 1"><path class="cls-1" d="M2.58,0h12L157,1.32C157,2.13,15.34,3,14.53,3H6.15A1.47,1.47,0,0,0,4.68,4.46v6.25a1.47,1.47,0,0,0,1.47,1.47h7.52a1.46,1.46,0,0,1,1.47,1.46v0a1.47,1.47,0,0,1-1.47,1.47H6.15a1.47,1.47,0,0,0-1.47,1.46v9.58a1.46,1.46,0,0,1-1.46,1.46H2.58a1.46,1.46,0,0,1-1.47-1.46V1.46A1.47,1.47,0,0,1,2.58,0Z"/><path class="cls-1" d="M22.55,4h.63a1.38,1.38,0,0,1,1.47,1.26V23.81a1.37,1.37,0,0,0,1.46,1.25H35a1.37,1.37,0,0,1,1.47,1.25v.05A1.37,1.37,0,0,1,35,27.61H22.55a1.37,1.37,0,0,1-1.47-1.25V5.26A1.38,1.38,0,0,1,22.55,4Z"/><path class="cls-1" d="M41.06,4a1.37,1.37,0,0,1,1.46,1.26V18c0,5.31,2.75,7.56,6.44,7.56,4.1,0,6.72-2.32,6.72-7.56V5.26A1.38,1.38,0,0,1,57.15,4h.68a1.37,1.37,0,0,1,1.46,1.26V17.82c0,7.28-4.47,10.27-10.45,10.27-5.66,0-9.92-2.78-9.92-10.13V5.26A1.37,1.37,0,0,1,40.38,4Z"/><path class="cls-1" d="M78.33,16.56H70.51a1.37,1.37,0,0,0-1.46,1.25v6a1.37,1.37,0,0,0,1.46,1.25h9A1.37,1.37,0,0,1,81,26.33v.05a1.37,1.37,0,0,1-1.46,1.25H67a1.37,1.37,0,0,1-1.47-1.25V5.26A1.38,1.38,0,0,1,67,4h12a1.38,1.38,0,0,1,1.47,1.26v0a1.37,1.37,0,0,1-1.47,1.25H70.51a1.37,1.37,0,0,0-1.46,1.26v5A1.37,1.37,0,0,0,70.51,14h7.82a1.37,1.37,0,0,1,1.46,1.25v0A1.37,1.37,0,0,1,78.33,16.56Z"/><path class="cls-1" d="M85.65,26.38V5.26A1.38,1.38,0,0,1,87.12,4h1.62A1.52,1.52,0,0,1,90,4.59L98.41,16a65.68,65.68,0,0,1,5,7.68l.08,0a89.35,89.35,0,0,1-.41-9.71V5.26A1.37,1.37,0,0,1,104.5,4h.44a1.38,1.38,0,0,1,1.46,1.26V26.38a1.37,1.37,0,0,1-1.46,1.25H103.6a1.55,1.55,0,0,1-1.24-.58L94,15.64a73.17,73.17,0,0,1-5.17-7.88l-.12,0c.2,3,.29,5.82.29,9.75v8.84a1.37,1.37,0,0,1-1.47,1.25h-.43A1.37,1.37,0,0,1,85.65,26.38Z"/><path class="cls-1" d="M131.61,25.87a1.22,1.22,0,0,1-1,1.5,24.31,24.31,0,0,1-6,.67C116.85,28,111,23.89,111,16.25,111,9,116.85,4,125.42,4a20.7,20.7,0,0,1,5.21.59,1.22,1.22,0,0,1,1,1.53l0,.12a1.5,1.5,0,0,1-1.8.81,16.27,16.27,0,0,0-4.22-.52c-6.48,0-10.79,3.49-10.79,9.62,0,5.7,3.9,9.37,10.62,9.37a18.84,18.84,0,0,0,4.4-.51,1.5,1.5,0,0,1,1.83.86Z"/><path class="cls-1" d="M142.68,26.38V17.93a1.08,1.08,0,0,0-.18-.6L135.14,5.86C134.61,5,135.31,4,136.43,4h.68a1.52,1.52,0,0,1,1.31.69l3.49,5.84c1.06,1.78,1.88,3.22,2.74,4.87h.08c.78-1.54,1.73-3.09,2.79-4.87l3.57-5.85a1.5,1.5,0,0,1,1.3-.68H153c1.13,0,1.83,1,1.26,1.89l-7.78,11.39a1.12,1.12,0,0,0-.2.63v8.47a1.37,1.37,0,0,1-1.46,1.25h-.68A1.37,1.37,0,0,1,142.68,26.38Z"/><text/><text/><rect class="cls-2" y="33.4" width="157.03" height="3.29"/></g></g></svg>